HIERARCHY
ROOT hip
{
	OFFSET 0.000000 0.000000 0.000000 
	CHANNELS 6 Xposition Yposition Zposition Xrotation Zrotation Yrotation
	JOINT abdomen
	{
		OFFSET 0.000000 3.402643 0.000000 
		CHANNELS 3 Xrotation Zrotation Yrotation
		JOINT chest
		{
			OFFSET 0.000000 8.438565 -0.680529 
			CHANNELS 3 Xrotation Zrotation Yrotation
			JOINT neck
			{
				OFFSET 0.000000 10.207942 -0.272212 
				CHANNELS 3 Xrotation Zrotation Yrotation
				JOINT head
				{
					OFFSET 0.000000 3.130431 0.000000 
					CHANNELS 3 Xrotation Zrotation Yrotation
					End Site
					{
						OFFSET 0.000000 3.130435 0.000000 
					}
				}
			}
			JOINT lCollar
			{
				OFFSET 3.470700 6.669187 -0.816635 
				CHANNELS 3 Yrotation Zrotation Xrotation
				JOINT lShldr
				{
					OFFSET 3.198488 0.000000 0.000000 
					CHANNELS 3 Zrotation Yrotation Xrotation
					JOINT lForeArm
					{
						OFFSET 10.139888 0.000000 0.000000 
						CHANNELS 3 Yrotation Zrotation Xrotation
						JOINT lHand
						{
							OFFSET 8.370511 0.000000 0.000000 
							CHANNELS 3 Zrotation Yrotation Xrotation
							End Site
							{
								OFFSET 4.083176 0.000000 0.000000 
							}
						}
					}
				}
			}
			JOINT rCollar
			{
				OFFSET -3.470700 6.669187 -0.816635 
				CHANNELS 3 Yrotation Zrotation Xrotation
				JOINT rShldr
				{
					OFFSET -3.198488 0.000000 0.000000 
					CHANNELS 3 Zrotation Yrotation Xrotation
					JOINT rForeArm
					{
						OFFSET -10.139888 0.000000 0.000000 
						CHANNELS 3 Yrotation Zrotation Xrotation
						JOINT rHand
						{
							OFFSET -8.370511 0.000000 0.000000 
							CHANNELS 3 Zrotation Yrotation Xrotation
							End Site
							{
								OFFSET -4.083176 0.000000 0.000000 
							}
						}
					}
				}
			}
		}
	}
	JOINT lThigh
	{
		OFFSET 5.308129 -1.633274 1.361059 
		CHANNELS 3 Xrotation Zrotation Yrotation
		JOINT lShin
		{
			OFFSET -2.041588 -20.007561 0.000000 
			CHANNELS 3 Xrotation Zrotation Yrotation
			JOINT lFoot
			{
				OFFSET 0.000000 -19.190928 -1.224953 
				CHANNELS 3 Xrotation Yrotation Zrotation
				End Site
				{
					OFFSET 0.000000 -2.449906 4.627600 
				}
			}
		}
	}
	JOINT rThigh
	{
		OFFSET -5.308129 -1.633274 1.361059 
		CHANNELS 3 Xrotation Zrotation Yrotation
		JOINT rShin
		{
			OFFSET 2.041588 -20.007561 0.000000 
			CHANNELS 3 Xrotation Zrotation Yrotation
			JOINT rFoot
			{
				OFFSET 0.000000 -19.190928 -1.224953 
				CHANNELS 3 Xrotation Yrotation Zrotation
				End Site
				{
					OFFSET 0.000000 -2.449906 4.627600 
				}
			}
		}
	}
}
MOTION
Frames: 19
Frame Time: 0.011111
19.468349 52.227978 8.192833 -1.032991 9.768199 -86.412643 15.021173 6.017570 -0.518370 -19.873165 3.302350 -0.771577 -12.459289 0.706174 -0.738553 14.120519 -6.764446 -2.239379 -13.725516 -13.189672 -3.762996 -2.975412 -75.429245 -19.500761 -85.276085 2.581562 26.920723 8.524705 12.647240 -4.075574 8.354301 9.292459 -1.514610 60.214081 20.126724 40.681236 85.413338 -2.407680 27.162045 -8.534408 -12.637552 17.171734 -10.136068 2.783366 2.511261 26.655579 -5.511599 -4.422107 -29.387877 -5.924486 -5.044777 -35.988064 -14.439478 -5.367399 61.695492 2.529494 8.267574 -21.655191 -6.184706 0.337444 
19.716036 52.175636 8.317633 -1.361482 9.869306 -86.982727 14.824098 6.064933 -0.955164 -19.873211 3.460040 -0.896738 -12.373327 0.991582 -0.489861 14.334137 -7.439919 -1.774935 -13.725516 -13.189672 -3.762996 -3.124301 -76.277794 -18.997349 -84.412468 3.528443 25.834282 8.524705 12.647240 -4.895887 8.354301 9.292459 -1.514610 59.847988 19.067719 43.519817 85.512726 -2.277286 27.339849 -8.534408 -12.637552 17.894388 -10.729895 2.343394 2.805616 27.392817 -5.453705 -4.514669 -29.604246 -6.040521 -5.110462 -36.190418 -14.429386 -6.199977 65.980553 2.032511 8.612013 -20.911890 -7.017344 0.200627 
19.950319 52.137012 8.415623 -1.650005 10.059620 -87.860107 14.507288 6.065928 -1.200544 -19.990654 3.654052 -0.960567 -12.316586 1.268640 -0.229248 14.774014 -8.150585 -1.299807 -13.725516 -13.189672 -3.762996 -3.631747 -76.943375 -18.113144 -83.181206 4.583330 24.698254 8.524705 12.647240 -5.852919 8.354301 9.292459 -1.514610 59.686420 17.652987 45.974594 85.612068 -2.136187 27.527966 -8.534408 -12.637552 18.285013 -11.410023 2.205322 3.790945 28.095858 -5.410312 -4.616186 -29.943266 -6.156061 -5.164051 -36.184753 -14.137517 -6.787252 69.607887 1.572231 8.838492 -18.908171 -7.664243 0.413359 
20.148531 52.104454 8.515847 -1.984823 10.234630 -88.839050 14.158907 6.003441 -1.334656 -19.951513 3.606175 -0.987865 -12.328670 1.633131 0.020767 15.038697 -8.620940 -0.803669 -13.725516 -13.189672 -3.762996 -4.592908 -77.590935 -16.595369 -81.732307 5.557544 23.604265 8.524705 12.647240 -6.282606 8.354301 9.292459 -1.514610 59.748726 16.309523 48.021534 85.696175 -2.009190 27.704977 -8.534408 -12.637552 18.255718 -11.865211 2.109483 5.076213 28.522882 -5.414496 -4.654705 -30.202909 -6.387897 -5.306706 -35.727295 -13.962481 -7.324298 72.353981 1.211745 9.021797 -16.028954 -8.200553 0.818873 
20.323767 52.090096 8.615751 -2.254322 10.441460 -89.894852 13.819703 6.025610 -1.334046 -19.794968 3.403794 -0.980654 -12.282114 1.984592 0.305592 14.835934 -8.784528 -0.116152 -13.725516 -13.189672 -3.762996 -5.971422 -78.121521 -14.558789 -80.188667 6.392641 22.582720 8.524705 12.647240 -6.487684 8.354301 9.292459 -1.514610 59.829350 15.077392 49.818474 85.774986 -1.890549 27.890747 -8.534408 -12.637552 18.001810 -12.188694 2.135941 6.339139 28.594229 -5.400581 -4.677817 -30.188974 -6.620118 -5.439186 -34.840164 -13.748264 -7.875237 74.203545 0.986879 9.136469 -12.783198 -8.533917 1.311392 
20.472504 52.083393 8.703847 -2.490494 10.689363 -91.101364 13.366366 6.067565 -1.272553 -19.599352 3.231200 -0.961583 -12.301767 2.084870 0.672861 14.652735 -8.689634 0.689443 -13.725516 -13.189672 -3.762996 -7.547364 -78.484909 -12.300881 -78.540321 7.119367 21.592947 8.524705 12.647240 -7.141981 8.354301 9.292459 -1.514610 59.869709 13.839795 51.331608 85.841316 -1.787303 28.065397 -8.534408 -12.637552 17.464703 -12.448496 2.176799 7.374050 28.373981 -5.410927 -4.650483 -29.776592 -6.605247 -5.426330 -33.609966 -13.533471 -8.354578 75.118568 0.850363 9.167275 -9.352055 -8.739748 1.863081 
20.587410 52.096794 8.779174 -2.726746 10.893283 -92.309273 12.932675 6.126390 -1.202479 -19.501577 3.037205 -0.940075 -12.429455 2.293345 0.972445 14.972741 -8.912022 1.287339 -13.725516 -13.189672 -3.762996 -9.103913 -78.720345 -9.944173 -76.771713 7.748863 20.586155 8.524705 12.647240 -8.177135 8.354301 9.292459 -1.514610 59.989769 12.435923 52.547428 85.890312 -1.706807 28.198883 -8.534408 -12.637552 16.898296 -12.561841 2.087677 7.821719 27.953184 -5.434896 -4.579636 -29.393808 -6.164428 -5.180962 -31.823757 -13.387390 -8.873091 75.040840 0.869835 9.166657 -8.052506 -7.732471 2.166960 
20.695934 52.151375 8.836308 -2.939963 10.869931 -93.455513 12.768835 6.161273 -1.204572 -19.570030 2.879852 -0.946332 -12.452170 2.761499 1.188054 15.371114 -9.472019 1.745406 -13.725516 -13.189672 -3.762996 -10.673802 -78.885689 -7.547943 -74.942375 8.265474 19.591330 8.524705 12.647240 -9.182998 8.354301 9.292459 -1.514610 59.542496 11.663455 54.641907 85.909561 -1.675539 28.269817 -8.534408 -12.637552 17.660015 -12.432672 1.891670 7.667498 27.461269 -5.459025 -4.531681 -29.317108 -5.219888 -4.630217 -29.436077 -13.296258 -9.454634 74.038635 1.006143 9.110095 -7.113772 -6.993564 2.335503 
20.812756 52.212021 8.873014 -3.189553 10.896135 -94.725044 12.620252 6.082953 -1.231271 -19.570030 2.879852 -0.946332 -12.338140 3.229441 1.471031 15.476686 -9.984734 2.368179 -13.725516 -13.189672 -3.762996 -12.312300 -78.980499 -5.339231 -73.079353 8.683158 18.631165 8.524705 12.647240 -10.110731 8.354301 9.292459 -1.514610 59.133717 11.015140 56.519852 85.920387 -1.659807 28.300375 -8.534408 -12.637552 18.626812 -12.318810 1.619641 7.185713 26.988108 -5.493575 -4.447967 -29.388681 -4.221173 -4.073990 -26.921173 -13.171980 -9.853480 72.256958 1.241049 9.016169 -6.525841 -6.370018 2.464584 
20.928619 52.263729 8.889293 -3.439856 10.998886 -96.195663 12.395168 5.964481 -1.189525 -19.452690 2.998584 -0.918698 -12.435170 3.405944 1.847036 15.708589 -10.229461 3.114333 -13.725516 -13.189672 -3.762996 -13.951331 -79.005287 -3.482890 -71.230499 8.997496 17.696932 8.524705 12.647240 -10.940809 8.354301 9.292459 -1.514610 58.742245 10.576671 58.065636 85.921440 -1.660662 28.310087 -8.534408 -12.637552 19.691267 -12.203698 1.405302 6.661984 26.359058 -5.498258 -4.383279 -29.215181 -3.102402 -3.454332 -24.353001 -12.869439 -9.904836 69.315109 1.611366 8.833264 -5.300665 -6.312094 2.592350 
21.040333 52.310970 8.891847 -3.648921 11.147569 -97.642677 12.093345 5.874348 -1.122842 -19.002798 3.181157 -0.880708 -12.832374 3.423921 2.241948 15.945271 -10.311772 3.901908 -13.725516 -13.189672 -3.762996 -15.731435 -78.963051 -1.767938 -69.403229 9.219203 16.789520 8.524705 12.647240 -11.682997 8.354301 9.292459 -1.514610 58.428040 10.612487 59.176392 85.916031 -1.668219 28.289795 -8.534408 -12.637552 20.951031 -12.187767 1.308882 6.265336 25.699450 -5.559410 -4.288088 -29.014503 -1.849000 -2.767116 -21.784155 -12.497644 -9.783834 65.854630 2.031454 8.573083 -4.351610 -7.075749 2.641823 
21.146303 52.349270 8.878758 -3.850428 11.372351 -99.015480 11.644675 5.744739 -1.072704 -18.513678 3.305323 -0.839691 -13.047091 3.712765 2.574806 16.017380 -10.607211 4.619059 -13.725516 -13.189672 -3.762996 -17.594488 -78.875336 0.070477 -67.511703 9.371034 15.875209 8.524705 12.647240 -12.386120 8.354301 9.292459 -1.514610 58.400753 10.736930 59.866989 85.910858 -1.675815 28.269783 -8.534408 -12.637552 22.298685 -12.411011 1.367111 6.207603 25.307991 -5.571251 -4.226318 -28.987535 -0.978028 -2.324167 -19.284990 -12.136987 -9.533008 61.861973 2.509764 8.269402 -5.088586 -6.527077 2.615119 
21.245890 52.386612 8.846203 -3.989823 11.472669 -100.333115 11.433317 5.634963 -0.977859 -18.865788 3.269407 -0.811991 -12.705531 4.010668 2.877338 16.365704 -10.783023 5.232627 -13.725516 -13.189672 -3.762996 -19.706869 -78.892021 2.326466 -65.577995 9.445281 14.957439 8.524705 12.647240 -13.050184 8.354301 9.292459 -1.514610 58.726650 10.209702 60.336109 85.909561 -1.675539 28.269817 -8.534408 -12.637552 23.480328 -12.615622 1.620882 6.529544 25.168032 -5.570657 -4.213917 -28.986298 -0.390929 -1.990139 -16.480190 -11.675705 -9.155852 57.207767 3.027674 7.871786 -6.849949 -5.168730 2.583334 
21.366541 52.421730 8.804389 -4.023718 11.515162 -101.557793 11.319080 5.646910 -0.919145 -18.856022 3.249738 -0.802244 -12.623966 4.093009 3.224571 16.511803 -10.776362 5.929192 -13.725516 -13.189672 -3.762996 -21.657106 -78.747261 4.121336 -63.565338 9.446320 14.016696 8.524705 12.647240 -13.802137 8.354301 9.292459 -1.514610 58.968792 10.410600 60.678677 85.890343 -1.707449 28.208626 -8.534408 -12.637552 24.359234 -12.998045 2.080407 7.220435 25.487576 -5.570441 -4.261358 -29.102354 0.359228 -1.587438 -13.426529 -11.043632 -8.692857 52.190228 3.564548 7.404974 -8.386119 -4.336604 2.537001 
21.504747 52.456516 8.759384 -3.812170 11.547681 -102.690720 11.426477 5.933911 -0.778613 -18.944132 3.111297 -0.791497 -12.506746 4.412428 3.531095 16.581917 -11.082199 6.576851 -13.725516 -13.189672 -3.762996 -23.445848 -78.543556 5.946123 -61.625572 9.377692 13.128541 8.524705 12.647240 -14.114638 8.354301 9.292459 -1.514610 59.257957 10.687134 60.887661 85.867035 -1.747710 28.136831 -8.534408 -12.637552 24.525249 -13.555120 2.822880 8.008246 26.223602 -5.529425 -4.367962 -29.395687 1.063278 -1.167750 -10.689680 -10.073585 -7.811060 47.691994 4.001232 6.919388 -10.021538 -3.912925 2.485817 
21.628910 52.488434 8.713103 -3.266565 11.522503 -103.609161 11.659461 6.629857 -0.601444 -19.061626 2.826810 -0.814901 -12.506333 4.707676 3.825872 16.800087 -11.408864 7.175631 -13.725516 -13.189672 -3.762996 -24.770838 -78.293953 7.524728 -59.867577 9.258887 12.342331 8.524705 12.647240 -14.163466 8.354301 9.292459 -1.514610 59.660664 10.575220 60.817719 85.865105 -1.746632 28.127150 -8.534408 -12.637552 23.626812 -14.184715 3.874975 8.443156 27.310053 -5.474011 -4.491939 -29.955837 1.425983 -0.891501 -8.198157 -8.957902 -7.152341 43.743618 4.335628 6.502114 -11.589987 -3.282394 2.476343 
21.745733 52.508224 8.675120 -2.628202 11.696889 -104.382477 11.730329 7.535552 -0.461416 -19.139965 2.426367 -0.867556 -12.510571 4.711257 4.154431 16.925236 -11.367853 7.823084 -13.725516 -13.189672 -3.762996 -25.740133 -78.009758 8.738193 -58.196735 9.096043 11.599680 8.524705 12.647240 -14.681043 8.354301 9.292459 -1.514610 60.141392 10.326447 60.531952 85.856812 -1.764087 28.115990 -8.534408 -12.637552 22.249859 -15.182206 5.008303 8.519249 28.795088 -5.386693 -4.701747 -30.636944 1.827797 -0.555765 -6.482393 -7.731368 -6.275548 40.822838 4.569874 6.160693 -13.375259 -2.872424 2.410117 
21.879789 52.514931 8.641286 -2.154313 11.858789 -105.128426 11.826153 8.205564 -0.388347 -19.276810 2.083212 -0.910142 -12.428997 4.864858 4.476732 16.909876 -11.357277 8.516384 -13.725516 -13.189672 -3.762996 -26.264709 -77.705643 9.833594 -56.710865 8.917094 10.952097 8.524705 12.647240 -14.876353 8.354301 9.292459 -1.514610 60.515270 10.418117 60.369564 85.835335 -1.794621 28.045103 -8.534408 -12.637552 21.370951 -16.358994 5.913436 8.496920 30.515032 -5.294173 -4.910081 -31.118670 2.394590 -0.154151 -5.076091 -6.666615 -5.181097 38.279644 4.775167 5.872277 -14.877561 -2.886926 2.275837 
22.018955 52.498966 8.618625 -1.841956 11.927346 -105.824188 12.058314 8.609043 -0.437357 -19.413586 1.876943 -0.967945 -12.409509 5.224826 4.759098 16.884621 -11.635470 9.154652 -13.725516 -13.189672 -3.762996 -26.412558 -77.400780 10.908664 -55.407951 8.730965 10.395618 8.524705 12.647240 -14.436903 8.354301 9.292459 -1.514610 60.699787 10.680709 60.314934 85.825859 -1.811112 28.024237 -8.534408 -12.637552 21.068216 -17.526344 6.609746 8.465216 32.329647 -5.192208 -5.142118 -31.451376 3.002736 0.233917 -3.904256 -5.807096 -4.021857 36.139957 4.921478 5.604705 -16.074463 -3.078549 2.114368 
